<svg width="100" height="100" viewBox="0 0 100 100" fill="none" xmlns="http://www.w3.org/2000/svg">
<path d="M25.7094 86.8947L26.849 87.1796L28.5584 87.4645L29.9829 87.7494H31.4074L33.1168 87.4645L34.8262 87.1796L36.8205 86.6098L38.5299 86.04L40.5242 85.1853L42.2336 84.3306L43.9431 83.4759L45.6525 82.3363L47.3619 81.1967L48.7864 80.0571L50.2109 78.9175L51.9203 77.493L53.0599 76.3534L54.4844 74.9289L56.1938 73.2195L57.3334 71.795L58.473 70.3705L59.6126 68.6611L60.7522 66.9517L61.8918 64.9574L63.3163 62.1084L64.4559 59.8291L65.3106 57.8348L66.7351 54.416L67.3049 52.7066L67.8747 50.4274L68.4445 48.1482L69.0143 46.1539L69.5841 43.3049L70.1539 40.7408L70.7237 37.6069L71.0086 36.0322L71.5784 32.4787V30.7693V27.9203L71.2935 25.926L71.0086 23.9317L70.4388 22.5072L69.869 21.0826L69.0143 19.943L67.8747 18.5185L66.4502 17.3789L65.0257 16.5242L63.0314 15.6695L61.6069 15.3846H60.7522L59.6126 15.6695L58.473 15.9544L56.4787 16.2393L54.1995 16.5242H51.9203L50.4958 16.2393L49.0713 15.9544L47.3619 15.3846L45.6525 15.0997H43.9431L42.2336 15.3846L40.2393 15.9544L38.8148 16.8091L37.3903 17.9487L35.9658 19.3732L34.5413 21.3675L33.6866 23.6468L33.4017 26.4958V29.0599L33.6866 31.3391L33.9715 33.6183L34.5413 36.4673L35.1111 38.4616L35.9658 41.3106L36.8205 43.8747L37.3903 45.5841L37.9601 47.8633L38.245 50.7123L38.5299 53.5613V56.9801V59.8291L37.9601 62.1084L37.3903 64.1027L36.8205 66.097L35.9658 67.8064L34.8262 69.8007L33.4017 71.795L31.6923 73.7893L29.9829 75.4987L27.9886 77.493L26.2792 79.2024L25.1396 80.6269L24.5698 81.7665L24.2849 82.6212L24 84.0457L24.2849 85.1853L24.5698 86.04L25.7094 86.8947Z" fill="#227C3C"/>
<path d="M52.2052 10.8262L52.4901 12.5356L53.3448 12.8205L53.6297 12.2507L54.1995 11.1111L54.7693 10.2564L55.624 9.11682L56.7636 7.97722L57.6183 7.40742L58.473 6.83762L59.3277 6.26782L60.1824 5.98291H61.0371H62.4616L64.171 6.26782L65.5955 6.55272L67.02 7.12252L68.7294 7.97722L70.1539 8.54702L72.1482 9.40172L73.5728 9.97152L75.2822 10.5413L76.9916 11.1111L78.4161 11.396L79.8406 11.6809L81.2651 11.9658H82.6896L84.6839 11.6809L86.1084 11.1111L87.5329 10.2564L88.9574 9.11682L90.097 7.97722L91.2366 6.55272L92.0913 5.12821L92.6611 3.70371L93.2309 2.27921L93.5158 1.1396V0H93.2309L92.6611 0.284901L92.0913 1.1396L91.5215 2.27921L90.3819 3.41881L89.2423 4.55841L88.1027 5.41311L86.6782 6.26782L84.9688 6.55272H83.2594L81.2651 6.26782L78.9859 5.69801L76.9916 5.12821L75.2822 4.55841L73.5728 3.98861L71.8633 3.41881L70.4388 2.84901L69.0143 2.27921L67.5898 1.7094L65.8804 1.1396L64.171 0.854702H62.4616L60.7522 1.1396L59.3277 1.7094L57.9032 2.56411L56.4787 3.41881L55.0542 4.55841L54.1995 5.41311L53.3448 6.55272L52.775 7.69232L52.2052 9.11682V10.8262Z" fill="#227C3C"/>
<path d="M98.9621 91.8201L87.2002 80.0599C86.6692 79.5289 85.9495 79.2343 85.1945 79.2343H83.2714C86.5279 75.0702 88.4623 69.8331 88.4623 64.1357C88.4623 50.5828 77.479 39.6012 63.9236 39.6012C50.3683 39.6012 39.3848 50.5828 39.3848 64.1357C39.3848 77.689 50.3683 88.6708 63.9236 88.6708C69.6218 88.6708 74.8599 86.7363 79.0245 83.4805V85.403C79.0245 86.158 79.3194 86.8776 79.8503 87.4087L91.6122 99.1688C92.7216 100.277 94.5148 100.277 95.6116 99.1688L98.9507 95.8303C100.059 94.7215 100.059 92.9289 98.9621 91.8201ZM63.9236 79.2343C55.5828 79.2343 48.8228 72.4873 48.8228 64.1357C48.8228 55.7964 55.571 49.0376 63.9236 49.0376C72.2645 49.0376 79.0245 55.7846 79.0245 64.1357C79.0245 72.4753 72.2763 79.2343 63.9236 79.2343Z" fill="black"/>
</svg>
