<svg class="svg-icon" viewBox="0 0 1024 1024" version="1.1" xmlns="http://www.w3.org/2000/svg"><path d="M820.48 728.32a118.4 118.4 0 0 0-24.32 0h-5.12l-17.92 5.76h-3.2a117.76 117.76 0 0 0-17.92 10.24l-5.76 4.48L640 658.56a198.4 198.4 0 0 0-4.48-256L768 270.72a117.12 117.12 0 0 0 24.96 15.36 116.48 116.48 0 0 0 19.2 5.76h3.2a118.4 118.4 0 1 0-92.16-92.16v5.76a116.48 116.48 0 0 0 5.12 16.64l3.2 5.76a117.12 117.12 0 0 0 7.68 14.08l3.84 5.12L613.76 384a200.32 200.32 0 0 0-275.2 10.24l-56.96-48v-5.76A116.48 116.48 0 0 0 292.48 320c0-3.84 0-7.04 3.2-10.88s0-6.4 0-9.6a115.84 115.84 0 0 0 0-22.4 118.4 118.4 0 1 0-93.44 115.2A117.12 117.12 0 0 0 231.04 384 118.4 118.4 0 0 0 256 373.76l6.4-5.12 57.6 47.36a200.96 200.96 0 0 0 19.2 259.84l-64 72.32h-8.32l-14.72-7.04h-8.32l-12.16-3.2a114.56 114.56 0 0 0-21.76 0 118.4 118.4 0 1 0 115.2 93.44 117.12 117.12 0 0 0-5.12-33.28 117.76 117.76 0 0 0-12.16-19.84L298.24 768l64-72.96a199.68 199.68 0 0 0 256-14.08l104.32 96.64V785.28a117.12 117.12 0 0 0-8.32 16v7.68a99.84 99.84 0 0 0-6.4 35.84 118.4 118.4 0 1 0 118.4-118.4zM96 279.68a86.4 86.4 0 0 1 172.16 0 85.12 85.12 0 0 1-6.4 30.72 88.32 88.32 0 0 1-5.76 14.72 87.04 87.04 0 0 1-8.32 12.16l-6.4 6.4a85.76 85.76 0 0 1-21.76 14.72h-4.48a85.12 85.12 0 0 1-30.08 6.4A86.4 86.4 0 0 1 96 279.68z m745.6-188.8a86.4 86.4 0 1 1-64 147.2 87.68 87.68 0 0 1-5.12-7.68 86.4 86.4 0 0 1-13.44-19.84 86.4 86.4 0 0 1 79.36-119.68zM209.28 933.12a86.4 86.4 0 1 1 0-172.16 85.12 85.12 0 0 1 31.36 6.4 87.68 87.68 0 0 1 15.36 8.96 87.04 87.04 0 0 1 11.52 7.68l5.76 6.4a85.76 85.76 0 0 1 14.72 21.76v4.48a85.12 85.12 0 0 1 6.4 30.72 86.4 86.4 0 0 1-85.12 85.76z m272.64-260.48A138.88 138.88 0 1 1 620.8 533.76a138.88 138.88 0 0 1-138.24 138.88z m338.56 260.48a86.4 86.4 0 0 1-86.4-86.4 85.12 85.12 0 0 1 6.4-32 87.68 87.68 0 0 1 11.52-17.92 87.68 87.68 0 0 1 6.4-9.6l4.48-4.48a86.4 86.4 0 0 1 23.68-16 85.12 85.12 0 0 1 32-6.4 86.4 86.4 0 1 1 0 172.16z" /></svg>